<?xml version="1.0" encoding="utf-8"?>
<!-- Generator: Adobe Illustrator 25.0.1, SVG Export Plug-In . SVG Version: 6.00 Build 0)  -->
<svg version="1.0" id="Layer_1" xmlns="http://www.w3.org/2000/svg" xmlns:xlink="http://www.w3.org/1999/xlink" x="0px" y="0px"
	 viewBox="0 0 919 636.3" style="enable-background:new 0 0 919 636.3;" xml:space="preserve">
<g id="CADILLAC_2DCREST">
	<g id="CADILLAC_2DCREST_POS_RGB">
		<path id="Shape" d="M256,305.6h-62.1l-4.8-28.4h266.5v28.4h-7.2v-21.8H253.7L256,305.6z M188,270.6h267.5v-20.9H184.6L188,270.6z
			 M355.3,340.6h100.2v-14.9H355.4L355.3,340.6z M181.9,243.2h63.4l-12-20.9h215.1v20.8h7.2v-28H162.3L181.9,243.2z M564.6,215.1
			H463.5V257h101.1L564.6,215.1z M208.3,376.6c1.6,2.5,4.7,5.4,14.8,8.1c4.9,1.2,10.3,2.4,17.9,4.1h107.3v-14.8H206.9
			C207.3,375,207.8,375.8,208.3,376.6L208.3,376.6z M202.2,354h146.1v-41.8H195L202.2,354z M355.3,412.6
			c37.4,7.4,74,14.2,100.3,18.3v-70.1H355.3V412.6z M571.5,305.6h153.6l7-41.9H571.5V305.6z M571.5,228.4v14.9l165.2-0.1l10.4-14.8
			H571.5z M821,182l-48.7,68.7c-5.3,29.2-19.3,104.4-20.9,111.7c-4.6,21-6.8,33.8-48.1,43.7c-55,13-180.8,38.4-243.9,48.3
			c-63.1-9.9-188.9-35.2-243.8-48.3c-41.3-9.8-43.5-22.6-48.1-43.7c-1.6-7.2-15.5-82.5-20.9-111.7L98,182H821z M782.6,194.9H136.4
			l38.4,54.8c9.6,57,15.5,93.6,18,106.4c4.3,22.2,5,31.8,28,38c45.6,10.8,178,38,238.8,47.2c60.8-9.1,193.1-36.3,238.8-47.1
			c23-6.2,23.7-15.8,28-38c2.4-12.8,8.4-49.4,18-106.4L782.6,194.9z M463.5,340.6h7.2v-21.1h191.2c-0.2,2-2,16.2-3,21.2h60.4
			l4.8-28.4H463.5V340.6z M463.5,367.9h250.7l4.1-20.7H463.5V367.9z M564.6,277.2H463.5v15h101.1V277.2z M463.5,374.1h248.7
			c-0.4,0.9-0.8,1.8-1.3,2.6c-1.7,2.5-4.7,5.6-14.8,8.1c-45,11.2-168.8,35.8-232.5,46.2L463.5,374.1z M470.7,422.5
			c11.5-2.1,39.5-7,49.5-8.9c101.7-19.4,119.2-22.4,127.7-32.4H470.7L470.7,422.5z"/>
	</g>
</g>
</svg>
