<?xml version="1.0" encoding="UTF-8"?><svg id="a" xmlns="http://www.w3.org/2000/svg" viewBox="0 0 150 150"><defs><style>.b{fill:none;}.c{fill:#e6002d;fill-rule:evenodd;}</style></defs><path class="b" d="M0,0H150V150H0V0Z"/><path class="c" d="M77.2,12.8c-33.7,0-60.9,27.3-60.9,61,0,1.2,0,2.4,.1,3.5H8.4c-.5,0-.7,.2-.9,.6-.1,.3-7.1,12.7-7.4,13C0,91.2,0,91.4,.3,91.4H18.8c7.6,25.1,30.9,43.3,58.4,43.3,33.7,0,61-27.3,61-61S110.9,12.8,77.2,12.8ZM33.6,91.4h16.2l-7.8,13.7c-3.4-4-6.3-8.6-8.4-13.7Zm43.6,29.4c-12.8,0-24.4-5.1-32.8-13.4h13.2S95.5,40.6,95.7,40.2c.2-.2,.1-.5-.2-.5h-15.5c-.3,0-.3,.1-.5,.2-.1,.2-21.4,37.3-21.4,37.3H30.3c-.1-1.1-.1-2.4-.1-3.5,0-26,21-47.1,47-47.1,13.3,0,25.2,5.6,33.8,14.4-3.7,6.2-20.3,34.5-22.6,38.6-1.2-2.9-7.3-2.4-10.4-2.5-1.4,2.3-7.6,14.2-7.6,14.2h6.6c3.1,0,3.4,3.2,2.2,5.2-1.2,2-6.1,10.8-6.1,10.8h16s19.6-34.3,30.7-53.7c2.9,6.1,4.5,12.9,4.5,20.1,0,26-21.1,47.1-47.1,47.1Z"/></svg>