<?xml version="1.0" encoding="utf-8"?>
<!-- Generator: Adobe Illustrator 12.0.0, SVG Export Plug-In . SVG Version: 6.00 Build 51448)  -->
<!DOCTYPE svg PUBLIC "-//W3C//DTD SVG 1.1//EN" "http://www.w3.org/Graphics/SVG/1.1/DTD/svg11.dtd" [
	<!ENTITY ns_svg "http://www.w3.org/2000/svg">
	<!ENTITY ns_xlink "http://www.w3.org/1999/xlink">
]>
<svg  version="1.1" id="レイヤー_1" xmlns="&ns_svg;" xmlns:xlink="&ns_xlink;" width="1135.391" height="576.148"
	 viewBox="0 0 1135.391 576.148" overflow="visible" enable-background="new 0 0 1135.391 576.148" xml:space="preserve">
<g id="レイヤー_1_1_">
	<path fill="none" stroke="#AAABAB" stroke-width="4" d="M553.585,175.235c0,0,6.986-8.017,18.767-5.712
		c14.069,2.755,16.09,12.715,16.09,12.715"/>
	<path fill="none" stroke="#AAABAB" stroke-width="4" d="M597.097,79.04c0,0-4.576,7.041-0.54,17.68
		c4.034,10.636,7.336,15.587,7.336,15.587s5.22,10.123,12.093,13.907c7.625,4.202,17.773,1.906,17.773,1.906"/>
	<path fill="none" stroke="#AAABAB" stroke-width="4" d="M553.786,183.911c0,0-5.292-33.009,24.651-35.516
		c24.226-2.028,20.771-37.718,25.667-52.083c5.503-16.141,23.657-39.152,64.529-43.577c14.127-1.53,308.487-0.274,308.487-0.274
		s8.273,0.253,14.082-2.711c5.044-2.575,21.812-6.332,29.24-6.426"/>
	<path fill="none" stroke="#AAABAB" stroke-width="4" d="M598.548,76.029c2.992-2.354,23.714-23.285,70.737-23.285"/>
	<path fill="none" stroke="#000000" stroke-width="12" d="M581.13,110.613c0,0-0.944,5.712-6.729,6.028
		c-7.161,0.391-8.959-6.648-16.77-3.969c-5.213,1.79-7.513,14.784-8.601,22.565c-1.019,7.27-0.467,23.343-0.467,23.343"/>
	<path fill="none" stroke="#000000" stroke-width="14" d="M687.971,39.294l342.124-0.598c0,0,24.759,0.526,33.928,3.553
		c1.945,0.644,12.459,2.789,20.907,10.729c9.163,8.612,16.365,22.328,16.365,22.328s4.88,8.479,5.776,11.416
		c2.614,8.526,3.53,42.896-34.979,39.979c-6.053-0.458-61.906-7.716-61.906-7.716s-24.131-3.378-31.125-1.965
		c-8.239,1.667-17.293,6.76-25.544,17.604c-24.009,31.557-45.74,19.197-66.375,9.496c-12.286-5.774-44.214-27.898-72.439,11.922
		c-27.231,38.419-63.271,23.29-72.715,10.819c-2.151-2.843-22.924-38.88-22.924-38.88s-14.854-26.271-47.041-16.091
		c-4.794,1.516-28.25,14.239-33.56,17.191c-56.424,31.356-56.26,90.573-51.123,117.532c1.208,6.333,7.124,37.526,7.124,37.526
		l6.516,34.218c0,0,1.129,4.961,0.347,8.781c-0.558,2.723-5.211,8.504-5.211,8.504l-21.629,31.803c0,0-8.375,12.526-11.642,17.114
		c-4.494,6.312-11.22,10.039-18.921,7.595c-7.351-2.333-108.753-58.341-108.753-58.341s-18.409-8.501-23.795-12.997
		c-6.257-5.229-14.784-19.668-14.784-19.668l-9.217-15.681l-10.292-18.799c0,0-7.195-16.366-17.604-8.299
		c-4.771,3.699-2.635,13.688-2.635,13.688l17.812,55.222c0,0,3.164,9.716,5.778,27.098c5.502,36.587-10.454,67.673-44.032,96.521
		c-7.466,6.415-18.538,13.379-18.538,13.379s-24.862,16.446-34.627,21.072c-27.416,12.99-53.642,16.2-83.871,9.724
		c-25.463-5.455-77.464-21.965-77.464-21.965s-22.597-6.396-38.738,10.934c-5.945,6.383-13.815,22.207-13.815,22.207
		s-27.579,44.051,24.308,55.687c22.695,5.086,102.194-18.57,102.194-18.57s29.723-8.005,61.479-23.104
		C293.78,502.929,492.806,382.99,492.806,382.99s32.407-18.786,36.311-23.383c13.895-16.367,24.39-63.574,25.308-76.476
		c0.165-2.313,0.139-20.082,0.139-20.082l-4.48-101.551c0,0-2.188-14.465,7.788-20.561c2.535-1.55,10.215-1.61,10.215-1.61
		s12.54-1.17,13.437-9.788c0.979-9.438,0.915-21.183,0.915-21.183s2.938-30.476,26.043-46.032
		C622.232,53.069,643.122,39.181,687.971,39.294z"/>
	<path fill="none" stroke="#000000" stroke-width="12" d="M380.508,371.386c0,0-2.337,10.979-8.25,14.625
		c-5.921,3.229-14.917,4.479-13.25,18.313c1.285,14.811-3.147,25.32-5.125,28.188"/>
</g>
<g id="レイヤー_2">
	<circle fill="#FFFFFF" cx="1072.42" cy="44.981" r="4.669"/>
	<circle fill="#FFFFFF" cx="1087.672" cy="125.436" r="4.668"/>
	<circle fill="#FFFFFF" cx="972.823" cy="119.056" r="4.668"/>
	<circle fill="#FFFFFF" cx="924.115" cy="154.848" r="4.668"/>
	<circle fill="#FFFFFF" cx="843.817" cy="133.84" r="4.669"/>
	<circle fill="#FFFFFF" cx="767.562" cy="180.215" r="4.669"/>
	<circle fill="#FFFFFF" cx="648.199" cy="123.725" r="4.669"/>
	<circle fill="#FFFFFF" cx="601.668" cy="325.408" r="4.669"/>
	<circle fill="#FFFFFF" cx="549.85" cy="392.636" r="4.668"/>
	<circle fill="#FFFFFF" cx="411.502" cy="320.739" r="4.668"/>
	<circle fill="#FFFFFF" cx="360.926" cy="257.559" r="4.668"/>
	<circle fill="#FFFFFF" cx="374.309" cy="403.062" r="4.669"/>
	<circle fill="#FFFFFF" cx="62.604" cy="524.76" r="4.669"/>
	<circle fill="#FFFFFF" cx="532.731" cy="354.198" r="4.669"/>
	<circle fill="#FFFFFF" cx="551.444" cy="144.111" r="4.668"/>
	<circle fill="#FFFFFF" cx="581.09" cy="131.234" r="4.668"/>
	<circle fill="#FFFFFF" cx="609.18" cy="61.866" r="4.668"/>
</g>
<g id="レイヤー_2_1_">
	<line fill="none" stroke="#FFFFFF" stroke-width="3" x1="507.512" y1="364.26" x2="491.639" y2="373.845"/>
	<line fill="none" stroke="#FFFFFF" stroke-width="3" x1="524.516" y1="373.665" x2="508.75" y2="383.427"/>
</g>
<g id="レイヤー_3">
	<g id="レイヤー_3_27_">
		<circle fill="#FFFFFF" stroke="#000000" cx="1086.025" cy="23.825" r="10.542"/>
		<text transform="matrix(1 0 0 1 1082.4534 28.4138)" font-family="'ArialMT'" font-size="12.4446">1</text>
	</g>
	<g id="レイヤー_3_26_">
		<circle fill="#FFFFFF" stroke="#000000" cx="1096.296" cy="148.944" r="10.542"/>
		<text transform="matrix(1 0 0 1 1092.8499 153.5549)" font-family="'ArialMT'" font-size="12.4446">2</text>
	</g>
	<g id="レイヤー_3_25_">
		<circle fill="#FFFFFF" stroke="#000000" cx="983.316" cy="143.342" r="10.542"/>
		<text transform="matrix(1 0 0 1 979.8704 147.9319)" font-family="'ArialMT'" font-size="12.4446">3</text>
	</g>
	<g id="レイヤー_3_24_">
		<circle fill="#FFFFFF" stroke="#000000" cx="926.359" cy="180.69" r="10.542"/>
		<text transform="matrix(1 0 0 1 922.9143 185.3005)" font-family="'ArialMT'" font-size="12.4446">4</text>
	</g>
	<g id="レイヤー_3_23_">
		<circle fill="#FFFFFF" stroke="#000000" cx="848.861" cy="158.281" r="10.543"/>
		<text transform="matrix(1 0 0 1 845.4153 162.8503)" font-family="'ArialMT'" font-size="12.4446">5</text>
	</g>
	<g id="レイヤー_3_22_">
		<circle fill="#FFFFFF" stroke="#000000" cx="766.694" cy="204.967" r="10.543"/>
		<text transform="matrix(1 0 0 1 763.2385 209.6292)" font-family="'ArialMT'" font-size="12.4446">6</text>
	</g>
	<g id="レイヤー_3_21_">
		<circle fill="#FFFFFF" stroke="#000000" cx="659.315" cy="144.937" r="10.542"/>
		<text transform="matrix(1 0 0 1 655.8186 149.5066)" font-family="'ArialMT'" font-size="12.4446">7</text>
	</g>
	<g id="レイヤー_3_19_">
		<circle fill="#FFFFFF" stroke="#000000" cx="629.437" cy="328.218" r="10.543"/>
		<text transform="matrix(1 0 0 1 625.9905 332.7869)" font-family="'ArialMT'" font-size="12.4446">8</text>
	</g>
	<g id="レイヤー_3_17_">
		<circle fill="#FFFFFF" stroke="#000000" cx="550.071" cy="417.854" r="10.542"/>
		<text transform="matrix(1 0 0 1 546.5417 422.4646)" font-family="'ArialMT'" font-size="12.4446">9</text>
	</g>
	<g id="レイヤー_3_15_">
		<circle fill="#FFFFFF" stroke="#000000" cx="591.018" cy="41.917" r="10.542"/>
		<text transform="matrix(1 0 0 1 584.092 46.5139)" font-family="'ArialMT'" font-size="12.4446">17</text>
	</g>
	<g id="レイヤー_3_13_">
		<circle fill="#FFFFFF" stroke="#000000" cx="556.157" cy="89.847" r="10.542"/>
		<text transform="matrix(1 0 0 1 549.217 94.4587)" font-family="'ArialMT'" font-size="12.4446">16</text>
	</g>
	<g id="レイヤー_3_11_">
		<circle fill="#FFFFFF" stroke="#000000" cx="525.346" cy="144.937" r="10.542"/>
		<text transform="matrix(1 0 0 1 518.4041 149.4656)" font-family="'ArialMT'" font-size="12.4446">15</text>
	</g>
	<g id="レイヤー_3_9_">
		<circle fill="#FFFFFF" stroke="#000000" cx="511.341" cy="340.977" r="10.543"/>
		<text transform="matrix(1 0 0 1 504.3977 345.6726)" font-family="'ArialMT'" font-size="12.4446">14</text>
	</g>
	<g id="レイヤー_3_7_">
		<circle fill="#FFFFFF" stroke="#000000" cx="37.634" cy="524.923" r="10.542"/>
		<text transform="matrix(1 0 0 1 30.7332 529.406)" font-family="'ArialMT'" font-size="12.4446">13</text>
	</g>
	<g id="レイヤー_3_5_">
		<circle fill="#FFFFFF" stroke="#000000" cx="337.358" cy="399.18" r="10.542"/>
		<text transform="matrix(1 0 0 1 330.4153 403.7908)" font-family="'ArialMT'" font-size="12.4446">12</text>
	</g>
	<g id="レイヤー_3_3_">
		<circle fill="#FFFFFF" stroke="#000000" cx="349.807" cy="235.157" r="10.543"/>
		<text transform="matrix(1 0 0 1 343.3435 239.8513)" font-family="'ArialMT'" font-size="12.4446">11</text>
	</g>
	<g id="レイヤー_3_1_">
		<circle fill="#FFFFFF" stroke="#000000" cx="428.863" cy="301.14" r="10.543"/>
		<text transform="matrix(1 0 0 1 421.8372 305.7507)" font-family="'ArialMT'" font-size="12.4446">10</text>
	</g>
</g>
<polyline fill="#221815" stroke="#221815" points="723.696,22.421 777.096,22.421 756.527,11.152 756.527,21.885 "/>
</svg>
