<svg xmlns="http://www.w3.org/2000/svg" width="1200" height="627" viewBox="0 0 1200 627" role="img" aria-labelledby="title desc">
  <title id="title">2022 Sprint points</title>
  <desc id="desc">Points earned across F1 Sprint sessions</desc>
  <style>
    .display { font-family: "Avenir Next", Avenir, "Gill Sans", sans-serif; fill: #18212B; }
    .label { font-family: "SFMono-Regular", Consolas, monospace; fill: #42505D; }
    .muted { fill: #6E7A85; }
  </style>
  <rect width="100%" height="100%" rx="24" fill="#F7F4EC"/>
  <path d="M 36 34 H 1166" stroke="#D8D2C5" stroke-width="1"/>
  <path d="M 36 34 H 78" stroke="#4F7C76" stroke-width="4" stroke-linecap="round"/>
  <text x="42" y="75" class="display" font-size="34" font-weight="700">2022 Sprint points</text>
  <text x="42" y="105" class="label muted" font-size="15" letter-spacing="1">POINTS EARNED ACROSS F1 SPRINT SESSIONS</text>
  <line x1="220.0" y1="145" x2="220.0" y2="563" stroke="#D8D2C5" stroke-width="1"/>
  <text x="220.0" y="599" text-anchor="middle" class="label muted" font-size="14">0</text>
  <line x1="401.0" y1="145" x2="401.0" y2="563" stroke="#D8D2C5" stroke-width="1"/>
  <text x="401.0" y="599" text-anchor="middle" class="label muted" font-size="14">5</text>
  <line x1="582.0" y1="145" x2="582.0" y2="563" stroke="#D8D2C5" stroke-width="1"/>
  <text x="582.0" y="599" text-anchor="middle" class="label muted" font-size="14">10</text>
  <line x1="763.0" y1="145" x2="763.0" y2="563" stroke="#D8D2C5" stroke-width="1"/>
  <text x="763.0" y="599" text-anchor="middle" class="label muted" font-size="14">15</text>
  <line x1="944.0" y1="145" x2="944.0" y2="563" stroke="#D8D2C5" stroke-width="1"/>
  <text x="944.0" y="599" text-anchor="middle" class="label muted" font-size="14">20</text>
  <line x1="1125.0" y1="145" x2="1125.0" y2="563" stroke="#D8D2C5" stroke-width="1"/>
  <text x="1125.0" y="599" text-anchor="middle" class="label muted" font-size="14">25</text>
  <text x="202" y="173" text-anchor="end" class="display" font-size="18" font-weight="600">Verstappen</text>
  <rect x="220" y="152" width="760.2" height="28" rx="4" fill="#2456C7"/>
  <text x="992.2" y="173" class="label" font-size="17" font-weight="700">21</text>
  <text x="202" y="215" text-anchor="end" class="display" font-size="18" font-weight="600">Sainz</text>
  <rect x="220" y="194" width="651.6" height="28" rx="4" fill="#E10600"/>
  <text x="883.6" y="215" class="label" font-size="17" font-weight="700">18</text>
  <text x="202" y="257" text-anchor="end" class="display" font-size="18" font-weight="600">Leclerc</text>
  <rect x="220" y="236" width="615.4" height="28" rx="4" fill="#E10600"/>
  <text x="847.4" y="257" class="label" font-size="17" font-weight="700">17</text>
  <text x="202" y="299" text-anchor="end" class="display" font-size="18" font-weight="600">Pérez</text>
  <rect x="220" y="278" width="506.8" height="28" rx="4" fill="#2456C7"/>
  <text x="738.8" y="299" class="label" font-size="17" font-weight="700">14</text>
  <text x="202" y="341" text-anchor="end" class="display" font-size="18" font-weight="600">Russell</text>
  <rect x="220" y="320" width="470.6" height="28" rx="4" fill="#00AFA0"/>
  <text x="702.6" y="341" class="label" font-size="17" font-weight="700">13</text>
  <text x="202" y="383" text-anchor="end" class="display" font-size="18" font-weight="600">Hamilton</text>
  <rect x="220" y="362" width="253.4" height="28" rx="4" fill="#00AFA0"/>
  <text x="485.4" y="383" class="label" font-size="17" font-weight="700">7</text>
  <text x="202" y="425" text-anchor="end" class="display" font-size="18" font-weight="600">Norris</text>
  <rect x="220" y="404" width="217.2" height="28" rx="4" fill="#F47600"/>
  <text x="449.2" y="425" class="label" font-size="17" font-weight="700">6</text>
  <text x="202" y="467" text-anchor="end" class="display" font-size="18" font-weight="600">Magnussen</text>
  <rect x="220" y="446" width="144.8" height="28" rx="4" fill="#7C8792"/>
  <text x="376.8" y="467" class="label" font-size="17" font-weight="700">4</text>
  <text x="202" y="509" text-anchor="end" class="display" font-size="18" font-weight="600">Ocon</text>
  <rect x="220" y="488" width="108.6" height="28" rx="4" fill="#E968A3"/>
  <text x="340.6" y="509" class="label" font-size="17" font-weight="700">3</text>
  <text x="202" y="551" text-anchor="end" class="display" font-size="18" font-weight="600">Ricciardo</text>
  <rect x="220" y="530" width="108.6" height="28" rx="4" fill="#F47600"/>
  <text x="340.6" y="551" class="label" font-size="17" font-weight="700">3</text>
  <text x="202" y="593" text-anchor="end" class="display" font-size="18" font-weight="600">Bottas</text>
  <rect x="220" y="572" width="72.4" height="28" rx="4" fill="#8E1F3D"/>
  <text x="304.4" y="593" class="label" font-size="17" font-weight="700">2</text>
  <text x="672.5" y="621" text-anchor="middle" class="label muted" font-size="13">SPRINT POINTS</text>
</svg>
