<svg xmlns="http://www.w3.org/2000/svg" width="1200" height="470" viewBox="0 0 1200 470" role="img" aria-labelledby="title desc">
  <title id="title">2020 fastest laps</title>
  <desc id="desc">Fastest Grand Prix laps by driver</desc>
  <style>
    .display { font-family: "Avenir Next", Avenir, "Gill Sans", sans-serif; fill: #18212B; }
    .label { font-family: "SFMono-Regular", Consolas, monospace; fill: #42505D; }
    .muted { fill: #6E7A85; }
  </style>
  <rect width="100%" height="100%" rx="24" fill="#F7F4EC"/>
  <path d="M 36 34 H 1166" stroke="#D8D2C5" stroke-width="1"/>
  <path d="M 36 34 H 78" stroke="#4F7C76" stroke-width="4" stroke-linecap="round"/>
  <text x="42" y="75" class="display" font-size="34" font-weight="700">2020 fastest laps</text>
  <text x="42" y="105" class="label muted" font-size="15" letter-spacing="1">FASTEST GRAND PRIX LAPS BY DRIVER</text>
  <line x1="220.0" y1="145" x2="220.0" y2="406" stroke="#D8D2C5" stroke-width="1"/>
  <text x="220.0" y="442" text-anchor="middle" class="label muted" font-size="14">0</text>
  <line x1="521.7" y1="145" x2="521.7" y2="406" stroke="#D8D2C5" stroke-width="1"/>
  <text x="521.7" y="442" text-anchor="middle" class="label muted" font-size="14">2</text>
  <line x1="823.3" y1="145" x2="823.3" y2="406" stroke="#D8D2C5" stroke-width="1"/>
  <text x="823.3" y="442" text-anchor="middle" class="label muted" font-size="14">4</text>
  <line x1="1125.0" y1="145" x2="1125.0" y2="406" stroke="#D8D2C5" stroke-width="1"/>
  <text x="1125.0" y="442" text-anchor="middle" class="label muted" font-size="14">6</text>
  <text x="202" y="173" text-anchor="end" class="display" font-size="18" font-weight="600">Hamilton</text>
  <rect x="220" y="152" width="905.0" height="28" rx="4" fill="#00AFA0"/>
  <text x="1137.0" y="173" class="label" font-size="17" font-weight="700">6</text>
  <text x="202" y="215" text-anchor="end" class="display" font-size="18" font-weight="600">Verstappen</text>
  <rect x="220" y="194" width="452.5" height="28" rx="4" fill="#2456C7"/>
  <text x="684.5" y="215" class="label" font-size="17" font-weight="700">3</text>
  <text x="202" y="257" text-anchor="end" class="display" font-size="18" font-weight="600">Bottas</text>
  <rect x="220" y="236" width="301.7" height="28" rx="4" fill="#00AFA0"/>
  <text x="533.7" y="257" class="label" font-size="17" font-weight="700">2</text>
  <text x="202" y="299" text-anchor="end" class="display" font-size="18" font-weight="600">Norris</text>
  <rect x="220" y="278" width="301.7" height="28" rx="4" fill="#F47600"/>
  <text x="533.7" y="299" class="label" font-size="17" font-weight="700">2</text>
  <text x="202" y="341" text-anchor="end" class="display" font-size="18" font-weight="600">Ricciardo</text>
  <rect x="220" y="320" width="301.7" height="28" rx="4" fill="#E6C619"/>
  <text x="533.7" y="341" class="label" font-size="17" font-weight="700">2</text>
  <text x="202" y="383" text-anchor="end" class="display" font-size="18" font-weight="600">Russell</text>
  <rect x="220" y="362" width="150.8" height="28" rx="4" fill="#1685D8"/>
  <text x="382.8" y="383" class="label" font-size="17" font-weight="700">1</text>
  <text x="202" y="425" text-anchor="end" class="display" font-size="18" font-weight="600">Sainz</text>
  <rect x="220" y="404" width="150.8" height="28" rx="4" fill="#F47600"/>
  <text x="382.8" y="425" class="label" font-size="17" font-weight="700">1</text>
  <text x="672.5" y="464" text-anchor="middle" class="label muted" font-size="13">FASTEST LAPS</text>
</svg>
